PathFileType	4	(X/Y/Z)	RBDS002\RBDS002runT25.trc
DataRate	CameraRate	NumFrames	NumMarkers	Units	OrigDataRate	OrigDataStartFrame	OrigNumFrames
150.000000	150.000000	4	33	mm	150.000000	1687	4500
Frame#	Time	L.ASIS			L.Heel.Bottom			L.Heel.Lateral			L.Heel.Top			L.Iliac.Crest			L.MT1			L.MT5			L.PSIS			L.Shank.Bottom.Lateral			L.Shank.Bottom.Medial			L.Shank.Top.Lateral			L.Shank.Top.Medial			L.Thigh.Bottom.Lateral			L.Thigh.Bottom.Medial			L.Thigh.Top.Lateral			L.Thigh.Top.Medial			R.ASIS			R.ASY			R.Heel.Bottom			R.Heel.Lateral			R.Heel.Top			R.Iliac.Crest			R.MT1			R.MT5			R.PSIS			R.Shank.Bottom.Lateral			R.Shank.Bottom.Medial			R.Shank.Top.Lateral			R.Shank.Top.Medial			R.Thigh.Bottom.Lateral			R.Thigh.Bottom.Medial			R.Thigh.Top.Lateral			R.Thigh.Top.Medial			
		X1	Y1	Z1	X2	Y2	Z2	X3	Y3	Z3	X4	Y4	Z4	X5	Y5	Z5	X6	Y6	Z6	X7	Y7	Z7	X8	Y8	Z8	X9	Y9	Z9	X10	Y10	Z10	X11	Y11	Z11	X12	Y12	Z12	X13	Y13	Z13	X14	Y14	Z14	X15	Y15	Z15	X16	Y16	Z16	X17	Y17	Z17	X18	Y18	Z18	X19	Y19	Z19	X20	Y20	Z20	X21	Y21	Z21	X22	Y22	Z22	X23	Y23	Z23	X24	Y24	Z24	X25	Y25	Z25	X26	Y26	Z26	X27	Y27	Z27	X28	Y28	Z28	X29	Y29	Z29	X30	Y30	Z30	X31	Y31	Z31	X32	Y32	Z32	X33	Y33	Z33	

1688	11.24666666666667	2316.892254792005	996.2002938331248	902.4278503878854	1924.645804695412	60.09044094399577	991.9625449772209	1958.964814351779	67.20535347104888	946.9888903880548	1943.197445477103	107.9137975444221	991.1970749165729	2222.168665007968	1059.344412289173	845.5457991172976	2151.466593485324	51.57941552567591	1041.054053610622	2120.401008481615	41.74288324525963	926.8816294409688	2127.463549423354	1018.543953928696	966.9239280021932	2053.066963216382	169.4485219667194	935.0044406927153	2015.41742444599	195.4352252837504	958.9760080219392	2087.942234898531	237.676473190573	908.8641133028045	2052.329421937371	267.4102013534985	935.382514617521	2240.959190959316	556.7548541975493	869.9604614158226	2183.714660704426	553.2518896710201	916.2816525141766	2214.846401494035	662.6886468891673	851.0780556969889	2163.971383657803	660.5982267158355	897.6086234123621	2312.007030697504	987.0019557429863	1119.565727822871	2226.540830027534	138.6227656382819	1123.711207237936	2037.160414485807	159.602776407447	1075.249876045317	2056.208046720299	172.4642652789615	1117.374318623014	2069.584392702229	199.3322129970815	1071.623401834745	2218.17495787449	1061.202272544419	1164.36379163843	2255.999582642919	72.31082704347929	1100.655720861558	2201.779795638549	103.9589826911279	1195.131859337362	2126.922816587559	1012.885270151584	1051.385838037705	2169.532467027474	263.9523429526682	1140.412399621243	2146.562117672422	286.8636385150017	1096.363952013114	2212.67873482454	332.4044430466601	1150.604806012846	2191.353287800201	352.7473494737914	1105.317562778099	2376.626256356873	578.918617533684	1165.948781354799	2328.559256392912	559.6735306221034	1113.265311872046	2316.338162298877	670.1871690785129	1184.164543177005	2269.729454018722	650.0639331223709	1135.715321256218	
1689	11.25333333333333	2316.669200291605	998.8987679099445	902.6861489295352	1908.892155812365	65.12369128064331	991.4049989853521	1943.372776939005	70.97046055696964	946.3556815427334	1928.351385316231	112.537009707744	990.0491507429211	2224.450750967606	1063.696969097806	846.2393298347436	2135.053513590798	51.81499393710875	1041.001039010506	2103.577670363835	41.96733258568641	926.9494095578951	2127.549325580657	1022.762548123069	966.5396063807968	2038.18582706323	173.2031652576809	934.2450127059378	2000.707015361939	199.241270495047	958.402399070987	2073.333011616404	241.3826507988522	908.3252575986505	2037.817653700184	271.1765194620681	934.9247864123996	2230.852645830159	560.201690933378	870.3699397660625	2173.266712109278	558.1837825206226	916.3569791949143	2207.594137846824	666.725275033212	851.2970487800794	2156.282133453859	665.9518447539289	897.4096077154778	2311.95486925455	991.8882814256466	1119.255932449082	2248.10346850157	135.3000178623302	1122.276913836414	2057.432708424549	147.3657247032194	1075.787543531797	2076.202350755527	160.7674488864351	1117.867056236176	2087.830211084511	188.7101433893119	1072.295459741044	2218.601836050229	1066.455856436547	1164.249978291031	2280.584323562174	70.72583270677541	1098.304772705929	2225.763738953302	98.78719029141166	1193.568354442429	2126.653524120834	1017.729878128269	1051.503893828397	2185.219875652345	257.7402268550563	1140.424481460094	2160.632434598361	279.8741091917406	1096.714881265552	2225.026363526463	328.1359732658267	1150.727007764118	2202.298927200126	347.7538275170348	1105.761905490408	2379.891665017458	585.2549998543133	1165.212562561137	2332.146065093259	565.7803271153645	1112.29679517419	2318.661581623942	675.8679483839495	1183.792261406184	2272.408280220924	655.5304841779906	1135.078638303383	
1690	11.26	2316.634099593356	1001.848676726329	903.0882848222786	1893.522894685246	70.957783981593	990.8515686477724	1928.129919909917	75.35820804290096	945.713801283763	1914.043485796116	117.8557401079171	988.8451714482077	2227.048004479517	1068.290383978121	846.9152964429609	2118.843531165717	51.99011280435722	1040.910553355557	2086.86568195222	42.21418845365302	926.9878773357481	2127.829058036663	1027.242427791123	966.134025165233	2023.67464022367	177.419109897274	933.3373844431906	1986.409882601864	203.4877166118971	957.7540946922209	2059.048380755703	245.571917163564	907.626492479495	2023.656254186631	275.3986083865076	934.3725407352999	2220.846993532743	564.1295241240307	870.655004582272	2163.06476924036	563.6544007409784	916.4303289730406	2200.503983304971	671.1888787125192	851.4781643626916	2148.873482086501	671.7842020909522	897.28528983131	2312.033690879734	996.991233363019	1118.990608506199	2270.006715761973	132.3457129182825	1120.692436488861	2078.536484329653	135.283001522459	1076.000522479983	2096.984171492731	149.1978467117236	1118.048801576367	2106.828850589508	178.1481157690977	1072.700662832639	2219.256580695016	1072.000235286212	1164.141642501244	2305.452629827818	69.6782514059405	1095.769687173678	2250.189273567316	94.04815763203423	1191.782501483958	2126.546752401433	1022.807761089177	1051.650432711588	2201.243344012583	251.5827922382167	1140.271051149147	2175.099246332325	272.8057241530777	1096.889765451573	2237.484169760096	323.8186087433119	1150.748012257582	2213.41967166046	342.5860889439641	1106.100369969612	2382.486494408305	591.596607640389	1164.396232055953	2335.036628464465	571.9911328896445	1111.257511995665	2320.566031791757	681.7197571383514	1183.282060227961	2274.618003642766	661.2588351466505	1134.330199847755	
1691	11.26666666666667	2316.795542306165	1005.010947430897	903.6388257096042	1878.611660453068	77.57569853241137	990.3263242150549	1913.285890705902	80.36939825749805	945.0879635548279	1900.342379841102	123.84051512368	987.6223800705395	2229.915499372494	1073.056606763918	847.5553022668125	2102.853417266632	52.08932087248423	1040.786755974172	2070.290918595639	42.49214712929314	926.9935369106911	2128.299320966995	1031.945806084214	965.7087898266791	2009.58617721536	182.0746099161211	932.2941184091546	1972.589262010127	208.1526326367638	957.0598651757093	2045.137562045875	250.2216502789831	906.7766596769512	2009.909383073307	280.0524324388312	933.7514273925309	2210.995993048363	568.5154905134762	870.7557953643716	2153.161143592079	569.6141016903262	916.443385286928	2193.613718840867	676.0598961779257	851.5837151640743	2141.798936094845	678.05022881909	897.2106800893921	2312.222637555089	1002.251423069905	1118.802974404896	2292.222334886582	129.834012929092	1118.956266849002	2100.466127860931	123.4710866484271	1075.889873172217	2118.552526022619	137.8717377926476	1117.916640273279	2126.576152706476	167.7510622055387	1072.830576333373	2220.011323273306	1077.745745195902	1164.039010684862	2330.561444997122	69.24528520400857	1093.056621701788	2275.022841809444	89.83677940192892	1189.777428415	2126.601047943054	1028.062684868635	1051.802178757268	2217.603826998053	245.5531809187197	1139.951804898721	2189.980895513032	265.7296344757792	1096.892305001531	2250.069372269884	319.4950654574981	1150.666669593174	2224.733299668281	337.2911443128634	1106.335305092067	2384.394033580823	597.869515261501	1163.523190036639	2337.14896693171	578.1892563895561	1110.244407759375	2322.042130258649	687.6810705233123	1182.646769177821	2276.294437679882	667.1503236699426	1133.549979514249	
